<?xml version="1.0" standalone="no"?>
<!DOCTYPE svg PUBLIC "-//W3C//DTD SVG 1.1//EN" "http://www.w3.org/Graphics/SVG/1.1/DTD/svg11.dtd" >
<!--
2014-10-16: Created with FontForge (http://fontforge.org)
-->
<svg xmlns="http://www.w3.org/2000/svg">
<metadata>
Created by FontForge 20141014 at Thu Oct 16 17:22:03 2014
 By matt
Copyright (c) 2014, matt
</metadata>
<defs>
<font id="tox-webfont" horiz-adv-x="512" >
  <font-face 
    font-family="tox-webfont"
    font-weight="400"
    font-stretch="normal"
    units-per-em="512"
    panose-1="2 0 5 3 0 0 0 0 0 0"
    ascent="448"
    descent="-64"
    bbox="-0.264463 -64 512 448.444"
    underline-thickness="25.6"
    underline-position="-51.2"
    unicode-range="U+F101-F116"
  />
    <missing-glyph />
    <glyph glyph-name="uniF10B" unicode="&#xf10b;" 
d="M308 244v204h-104v-204h-204v-104h204v-204h104v204h204v104h-204z" />
    <glyph glyph-name="uniF101" unicode="&#xf101;" 
d="M512 448l-256 -443l-256 443h512z" />
    <glyph glyph-name="uniF102" unicode="&#xf102;" 
d="M512 448h-512l256 -443z" />
    <glyph glyph-name="uniF103" unicode="&#xf103;" 
d="M508 341c-2 10 -6 19 -10 27c-7 14 -16 27 -26 37c-8 8 -16 14 -25 19c-13 8 -28 14 -41 18c-7 2 -13 4 -19 5s-13 1 -19 1c-16 0 -30 -2 -42 -6c-9 -3 -17 -5 -24 -9c-10 -5 -18 -11 -23 -16c-4 -3 -6 -6 -7 -8l-224 -221v0c-6 -6 -12 -12 -18 -20
c-8 -12 -15 -26 -21 -42c-5 -16 -9 -34 -9 -54c0 -8 1 -16 3 -24c3 -14 9 -28 17 -41c6 -10 14 -19 22 -27c13 -13 28 -23 45 -31c9 -4 18 -7 28 -9s19 -3 30 -3c10 0 20 2 29 4c8 2 16 6 23 9c13 6 24 13 34 21c15 11 27 23 36 32s14 17 14 17l-41 32v0l19 -15l-19 15
l17 -13l-17 13v0v0v0v0s-3 -4 -9 -10c-4 -5 -10 -11 -17 -17c-5 -5 -10 -9 -16 -13c-9 -7 -18 -12 -27 -16c-5 -2 -10 -4 -14 -5s-8 -1 -12 -1c-7 0 -14 1 -20 2c-11 2 -20 6 -29 12c-7 4 -14 9 -19 15c-8 8 -14 19 -18 28c-2 5 -4 9 -5 13s-1 9 -1 12c0 10 0 18 2 26
c3 12 7 22 12 31s12 16 18 22l226 223l1 1l4 4c4 3 10 7 18 10c4 2 8 4 14 5s13 1 20 1c4 0 8 0 13 -1c8 -1 18 -4 27 -8c7 -3 14 -8 20 -13c5 -4 8 -8 12 -12c6 -7 11 -14 14 -23s5 -20 5 -32c0 -6 0 -11 -1 -16c-2 -8 -6 -15 -10 -22s-9 -13 -14 -18v0l-113 -119
s-1 0 -2 -1c-2 -1 -5 -3 -9 -5s-10 -3 -17 -3c-2 0 -3 1 -5 1c-3 1 -5 1 -7 3c-2 1 -3 2 -5 4c-2 3 -5 6 -6 10s-2 9 -2 13s1 7 2 11c1 3 3 6 4 8c2 4 3 6 5 8l2 2h1v1l88 86l-37 38l-87 -86l-5 -5c-4 -5 -11 -12 -16 -23c-3 -5 -5 -11 -7 -18s-3 -14 -3 -22
c0 -10 3 -21 6 -31c3 -7 6 -14 10 -20c3 -5 8 -9 12 -13c7 -6 14 -11 23 -14s17 -6 27 -6s20 2 28 4c6 2 11 4 16 6c7 3 12 7 16 10l6 6l113 118c10 10 19 23 27 39c4 8 7 16 9 25s4 19 4 29c0 12 -1 24 -4 35zM312 375v0v0v0zM472 213v0v0v0z" />
    <glyph glyph-name="uniF10C" unicode="&#xf10c;" horiz-adv-x="450" 
d="M299 134c-70 -63 -144 0 -144 0c-187 -59 -152 -198 -152 -198h437s66 124 -141 198zM101 319c0 0 12 -173 123 -173s124 161 124 161s5 141 -124 141c-128 0 -123 -129 -123 -129z" />
    <glyph glyph-name="uniF104" unicode="&#xf104;" 
d="M402 448c0 0 -13 2 -18 -12l-43 -101s-8 -15 4 -29l31 -40s12 -11 3 -24s-55 -97 -173 -150c0 0 -14 -10 -25 5s-44 68 -65 57l-108 -51s-10 -2 -8 -21s0 -108 128 -108c153 0 384 218 384 357c0 0 0 117 -72 117h-38v0z" />
    <glyph glyph-name="uniF105" unicode="&#xf105;" 
d="M172 176l-105 104l-67 -67l172 -172v0l68 67l272 273l-67 67z" />
    <glyph glyph-name="uniF111" unicode="&#xf111;" 
d="M256 345c85 0 153 -68 153 -153s-69 -153 -153 -153c-85 0 -153 68 -153 153s68 153 153 153zM256 82c61 0 110 49 110 110c0 9 -1 18 -3 26v0v0c0 1 -1 2 -1 3v2c0 1 -1 2 -1 3l-1 1c0 1 -1 3 -1 4v1c-1 4 -3 7 -5 11h-1c-1 1 0 2 -1 3l-1 2l-2 2c0 1 -1 2 -1 2
c-1 1 0 2 -1 3l-1 1l-2 2l-1 2l-5 5v1l-2 2c-1 0 -1 0 -2 1s0 1 -1 2l-2 2s-1 0 -2 1l-2 2l-2 2s-1 0 -2 1c-1 0 -1 1 -2 1l-2 2l-2 1c-1 1 -3 2 -4 3l-1 1c-1 1 -2 0 -3 1c-1 0 -1 1 -2 1c-1 1 -1 2 -2 2s-1 1 -2 1s-2 1 -3 1s-1 1 -2 1s-2 1 -3 1h-2c-2 1 -2 2 -4 2v0
c-2 1 -3 2 -5 2h-2c-1 0 -2 1 -3 1h-2s-2 1 -3 1h-2h-4h-1s-3 1 -4 1h-2h-5v0v0v0h-5h-2h-4s-1 -1 -2 -1h-3h-2s-2 -1 -3 -1h-2s-2 -1 -3 -1s-1 -1 -2 -1s-2 -1 -3 -1s-3 -1 -4 -1h-2s-2 -1 -3 -1s-1 -1 -2 -1s-1 -1 -2 -1s-1 -1 -2 -1s-2 -1 -3 -1s-1 -1 -2 -1s-1 -1 -2 -2
h-1c-5 -3 -10 -7 -14 -10h-1l-3 -3v0l-3 -3h-1c-21 -20 -34 -49 -34 -80c0 -61 49 -110 110 -110zM256 448c141 0 256 -115 256 -256s-115 -256 -256 -256s-256 115 -256 256s115 256 256 256zM405 43c38 38 61 91 61 149s-23 111 -61 149s-91 61 -149 61s-111 -23 -149 -61
s-61 -91 -61 -149s23 -111 61 -149s91 -61 149 -61s111 23 149 61z" />
    <glyph glyph-name="uniF110" unicode="&#xf110;" 
d="M256 448c141 0 256 -115 256 -256s-115 -256 -256 -256s-256 115 -256 256s115 256 256 256zM256 8c102 0 184 82 184 184c0 15 -2 29 -5 43v0v1c0 2 -1 3 -2 5v3c-1 2 -1 3 -2 5c0 1 -1 1 -1 2c-1 2 -1 4 -2 6v1c-2 6 -6 13 -9 19v1c-1 2 -2 3 -3 5c0 1 -1 1 -1 2
c-1 2 -2 4 -3 5l-2 2s-2 4 -3 5s0 1 -1 2s-2 3 -3 4l-2 2c-3 3 -5 7 -8 10v0c-1 1 -2 3 -3 4s-2 1 -3 2l-3 3l-3 3l-3 3s-2 1 -3 2l-3 3s-3 2 -4 3s-2 1 -3 2c-2 1 -2 2 -4 3c-1 0 -1 1 -2 2c-2 1 -5 2 -7 4c-1 0 -1 1 -2 1c-2 1 -3 2 -5 3c-1 0 -2 2 -3 2c-2 1 -4 1 -5 2
s-2 2 -3 2c-2 1 -3 1 -5 2c-1 0 -1 1 -2 1c-2 1 -4 1 -6 2c-1 0 -1 1 -2 1c-3 1 -5 2 -8 3v0c-3 1 -6 1 -9 2c-1 0 -1 1 -2 1c-2 1 -4 1 -6 1c-1 0 -2 1 -3 1c-2 0 -3 1 -5 1h-4c-2 0 -3 1 -5 1h-3c-2 0 -4 1 -6 1h-3h-9v0v0v0h-9h-3c-2 0 -4 -1 -6 -1h-3c-2 0 -3 -1 -5 -1
h-4c-2 0 -3 -1 -5 -1c-1 0 -2 -1 -3 -1c-2 0 -3 -1 -5 -1c-1 0 -3 -1 -4 -1c-2 -1 -4 -1 -6 -2s-3 0 -5 -1c-1 0 -3 -1 -4 -2s-3 0 -4 -1c-1 0 -3 -1 -4 -2s-3 -1 -4 -2c-1 0 -2 0 -3 -1s-4 -1 -5 -2c-1 0 -2 -1 -3 -2l-4 -2c-1 0 -1 -1 -2 -1c-8 -5 -16 -10 -23 -16h-1
c-2 -1 -3 -4 -5 -5h-1c-2 -1 -3 -3 -5 -5v0c-35 -33 -58 -81 -58 -134c0 -102 82 -184 184 -184z" />
    <glyph glyph-name="uniF113" unicode="&#xf113;" 
d="M257 342c85 0 153 -68 153 -153s-68 -153 -153 -153s-153 68 -153 153s68 153 153 153zM147 189h220c0 61 -49 110 -110 110s-110 -49 -110 -110zM466 192h46c0 -141 -115 -256 -256 -256s-256 115 -256 256s115 256 256 256s256 -115 256 -256h-46c0 58 -23 111 -61 149
s-91 61 -149 61s-111 -23 -149 -61s-61 -91 -61 -149s23 -111 61 -149s91 -61 149 -61s111 23 149 61s61 91 61 149z" />
    <glyph glyph-name="uniF112" unicode="&#xf112;" 
d="M256 448c141 0 256 -115 256 -256s-115 -256 -256 -256s-256 115 -256 256s115 256 256 256zM72 192h368c0 102 -82 184 -184 184s-184 -82 -184 -184z" />
    <glyph glyph-name="uniF114" unicode="&#xf114;" horiz-adv-x="507" 
d="M253 448c-137 0 -253 -116 -253 -253c0 -142 116 -254 253 -254c142 0 254 117 254 254c5 137 -112 253 -254 253zM253 12c-101 0 -182 82 -182 183c0 51 21 101 56 131v0l5 5v0l5 5v0c10 5 20 11 25 16v0h5h5h5h5h6h5h5h5h5h5h5h5h5h5h5h5h5h5h6h10v0v0v0h10h5h5h5h5h5
h5h5h5v0h11v0c5 0 5 0 10 -5v0h5h5h5h5h5h5c0 0 5 0 5 -5v0l-20 5v0s5 0 5 -5h5c0 0 0 -1 5 -6l5 -5l5 -5l5 -5l5 -5l5 -5l5 -5c0 0 1 0 6 -5v0l10 -10v0s0 -5 5 -5v0c-15 10 -15 10 -10 5v0s0 -5 5 -5v0s0 -5 5 -5v0c5 -5 5 -11 10 -21v0v-5v0v-5v0v-5v0v0
c5 -25 5 -35 5 -50c0 -101 -82 -183 -183 -183zM421 306l-279 -279l-51 56l274 274z" />
    <glyph glyph-name="uniF116" unicode="&#xf116;" 
d="M408 192c0 -84 -68 -152 -152 -152s-152 68 -152 152s68 152 152 152s152 -68 152 -152zM466 192h46c0 -141 -115 -256 -256 -256s-256 115 -256 256s115 256 256 256s256 -115 256 -256h-46c0 58 -23 111 -61 149s-91 61 -149 61s-111 -23 -149 -61s-61 -91 -61 -149
s23 -111 61 -149s91 -61 149 -61s111 23 149 61s61 91 61 149z" />
    <glyph glyph-name="uniF115" unicode="&#xf115;" 
d="M512 192c0 -141 -115 -256 -256 -256s-256 115 -256 256s115 256 256 256s256 -115 256 -256z" />
    <glyph glyph-name="uniF106" unicode="&#xf106;" horiz-adv-x="482" 
d="M241 -64c133 0 241 108 241 241h-72c0 -47 -18 -89 -49 -120s-73 -50 -120 -50s-89 19 -120 50s-50 73 -50 120h-71c0 -133 108 -241 241 -241zM169 380c0 38 -30 68 -67 68s-68 -31 -68 -68s31 -68 68 -68s67 31 67 68zM440 380c0 38 -30 68 -67 68s-68 -31 -68 -68
s31 -68 68 -68s67 31 67 68z" />
    <glyph glyph-name="uniF10D" unicode="&#xf10d;" horiz-adv-x="495" 
d="M303 81c-52 -45 -106 0 -106 0c-136 -43 -111 -145 -111 -145h320s48 91 -103 145zM158 233c0 0 9 -127 90 -127s91 118 91 118s3 103 -91 103s-90 -94 -90 -94zM108 214c0 3 -1 17 3 35c-17 3 -27 11 -27 11c-101 -34 -83 -104 -83 -104h118c-9 29 -11 54 -11 57v1z
M389 206v-1v-2c-1 -14 -4 -30 -9 -47h114s18 70 -83 104c0 0 -9 -8 -26 -11c5 -22 4 -40 4 -43zM190 367c1 4 1 6 1 6s2 75 -66 75s-65 -69 -65 -69s6 -83 57 -91c6 16 15 33 30 49c10 10 23 22 43 30zM378 287c54 5 60 86 60 86s2 75 -66 75s-65 -69 -65 -69s0 -5 2 -14
c17 -8 29 -18 38 -27c15 -16 25 -34 31 -51z" />
    <glyph glyph-name="uniF107" unicode="&#xf107;" 
d="M512 362l-86 86l-170 -170l-170 170l-86 -86l170 -170l-170 -170l86 -86l170 170l170 -170l86 86l-170 170z" />
    <glyph glyph-name="uniF108" unicode="&#xf108;" horiz-adv-x="458" 
d="M0 -64h130v512h-130v-512zM327 -64h131v512h-131v-512z" />
    <glyph glyph-name="uniF109" unicode="&#xf109;" horiz-adv-x="433" 
d="M81 403c-34 -24 -60 -58 -72 -98c-15 -48 -12 -103 11 -148c23 -48 67 -84 117 -102c41 -16 87 -18 130 -8c-5 -40 -23 -77 -43 -111c64 41 116 98 159 160c31 47 52 103 49 160c-2 50 -27 99 -63 133c-39 37 -93 58 -147 59c-50 2 -101 -15 -141 -45z" />
    <glyph glyph-name="uniF10E" unicode="&#xf10e;" 
d="M512 217c0 6 -6 12 -12 12h-21c-7 0 -14 5 -16 11l-29 69c-3 6 -2 14 3 19l14 14c5 5 5 12 0 17l-35 35c-5 5 -12 5 -17 0l-16 -16c-5 -5 -12 -6 -18 -3l-60 24c-6 2 -11 8 -11 15v22c0 6 -6 12 -12 12h-50c-6 0 -12 -6 -12 -12v-22c0 -7 -5 -13 -11 -15l-69 -30
c-6 -3 -14 -2 -19 3l-15 15c-5 5 -12 5 -17 0l-35 -35c-5 -5 -5 -12 0 -17l17 -17c5 -5 6 -12 3 -18l-24 -60c-2 -6 -8 -11 -15 -11h-23c-6 0 -12 -6 -12 -12v-49c0 -6 6 -12 12 -12h23c7 0 13 -6 15 -12l29 -68c3 -6 2 -13 -2 -18l-16 -16c-5 -5 -5 -12 0 -17l35 -35
c5 -5 13 -5 17 0l17 17c5 5 13 6 19 3l60 -24c6 -2 11 -9 11 -15v-23c0 -6 6 -12 12 -12h50c6 0 12 6 12 12v23c0 6 5 13 11 15l67 29c6 3 14 2 19 -3l15 -15c5 -5 12 -5 17 0l35 35c5 5 5 12 0 17l-16 16c-4 5 -6 13 -3 19l25 60c2 6 8 12 15 12h21c6 0 12 6 12 12v49z
M256 108c-46 0 -84 38 -84 84s38 84 84 84s84 -38 84 -84s-38 -84 -84 -84z" />
    <glyph glyph-name="uniF10F" unicode="&#xf10f;" 
d="M207 -63v0c3 -1 6 -1 10 -1l199 20c11 1 15 6 15 9s-2 9 -12 19l-46 46l136 136c5 5 3 16 -4 23l-60 60c-4 4 -8 6 -12 7s-9 -1 -11 -3l-136 -136l-45 46c-7 7 -15 11 -19 12c-6 1 -8 -7 -9 -15l-21 -199c-1 -10 1 -17 4 -20s8 -3 11 -4zM305 448v0c-3 1 -6 0 -10 0
l-199 -21c-11 -1 -15 -5 -15 -8s2 -9 12 -19l46 -46l-136 -136c-5 -5 -3 -16 4 -23l60 -60c4 -4 8 -5 12 -6s8 0 11 2l135 136l46 -46c7 -7 15 -11 19 -12c6 -1 8 7 9 15l21 199c1 10 -1 17 -4 20c-2 3 -8 4 -11 5z" />
    <glyph glyph-name="uniF10A" unicode="&#xf10a;" 
d="M200 403v-236c0 -25 20 -45 45 -45h222c25 0 45 20 45 45v236c0 25 -20 45 -45 45h-222c-25 0 -45 -20 -45 -45zM0 156l170 98v62l-170 99v-259z" />
  </font>
</defs>
</svg>
